<svg width="21" height="22" viewBox="0 0 21 22" fill="none" xmlns="http://www.w3.org/2000/svg">
<path d="M20.5402 5.75781C20.817 5.4793 20.817 5.02109 20.5402 4.74258L16.2545 0.430078C15.9777 0.151562 15.5223 0.151562 15.2455 0.430078C14.9688 0.708594 14.9688 1.1668 15.2455 1.44531L18.3125 4.53145H1.46429C1.07143 4.53145 0.75 4.85488 0.75 5.25019C0.75 5.64551 1.07143 5.96894 1.46429 5.96894H18.3125L15.2455 9.05508C14.9688 9.33359 14.9688 9.7918 15.2455 10.0703C15.5223 10.3488 15.9777 10.3488 16.2545 10.0703L20.5402 5.75781ZM5.24554 21.5703C5.52232 21.8488 5.97768 21.8488 6.25446 21.5703C6.53125 21.2918 6.53125 20.8336 6.25446 20.5551L3.1875 17.4689H20.0357C20.4286 17.4689 20.75 17.1455 20.75 16.7502C20.75 16.3549 20.4286 16.0314 20.0357 16.0314H3.1875L6.25446 12.9453C6.53125 12.6668 6.53125 12.2086 6.25446 11.9301C5.97768 11.6516 5.52232 11.6516 5.24554 11.9301L0.959821 16.2426C0.683036 16.5211 0.683036 16.9793 0.959821 17.2578L5.24554 21.5703Z" fill="black"/>
</svg>
