<svg width="24" height="20" viewBox="0 0 24 20" fill="none" xmlns="http://www.w3.org/2000/svg">
<path d="M2 3.25V1.75H3.5V3.25H2ZM0.5 1.375V3.625C0.5 4.24844 1.00156 4.75 1.625 4.75H3.875C4.49844 4.75 5 4.24844 5 3.625V1.375C5 0.751562 4.49844 0.25 3.875 0.25H1.625C1.00156 0.25 0.5 0.751562 0.5 1.375ZM8 1.75C7.5875 1.75 7.25 2.0875 7.25 2.5C7.25 2.9125 7.5875 3.25 8 3.25H23C23.4125 3.25 23.75 2.9125 23.75 2.5C23.75 2.0875 23.4125 1.75 23 1.75H8ZM8 9.25C7.5875 9.25 7.25 9.5875 7.25 10C7.25 10.4125 7.5875 10.75 8 10.75H23C23.4125 10.75 23.75 10.4125 23.75 10C23.75 9.5875 23.4125 9.25 23 9.25H8ZM8 16.75C7.5875 16.75 7.25 17.0875 7.25 17.5C7.25 17.9125 7.5875 18.25 8 18.25H23C23.4125 18.25 23.75 17.9125 23.75 17.5C23.75 17.0875 23.4125 16.75 23 16.75H8ZM2 9.25H3.5V10.75H2V9.25ZM1.625 7.75C1.00156 7.75 0.5 8.25156 0.5 8.875V11.125C0.5 11.7484 1.00156 12.25 1.625 12.25H3.875C4.49844 12.25 5 11.7484 5 11.125V8.875C5 8.25156 4.49844 7.75 3.875 7.75H1.625ZM2 18.25V16.75H3.5V18.25H2ZM0.5 16.375V18.625C0.5 19.2484 1.00156 19.75 1.625 19.75H3.875C4.49844 19.75 5 19.2484 5 18.625V16.375C5 15.7516 4.49844 15.25 3.875 15.25H1.625C1.00156 15.25 0.5 15.7516 0.5 16.375Z" fill="black"/>
</svg>
