<svg width="28" height="24" viewBox="0 0 28 24" fill="none" xmlns="http://www.w3.org/2000/svg">
<path d="M8.74995 1.5H19.2499C19.6718 1.5 19.9718 1.84219 19.9578 2.20312C19.6671 9.88594 17.8531 13.4156 16.3906 15.0234C15.664 15.825 14.989 16.1859 14.5484 16.35C14.3234 16.4344 14.1499 16.4719 14.0515 16.4906C14.0281 16.4953 14.0093 16.4953 13.9953 16.5C13.9812 16.5 13.9624 16.4953 13.939 16.4906C13.8406 16.4766 13.6671 16.4391 13.4421 16.35C13.0015 16.1859 12.3265 15.8203 11.5999 15.0234C10.1468 13.4156 8.33276 9.88594 8.04213 2.20312C8.02807 1.8375 8.33276 1.5 8.74995 1.5ZM19.2499 0H8.74995C7.50776 0 6.49526 1.02188 6.54213 2.25938C6.55151 2.50781 6.56088 2.75625 6.57495 3H2.74995C1.5312 3 0.439008 4.0125 0.584321 5.32969C1.05776 9.73594 3.48588 12.7453 6.12026 14.7C8.74057 16.6406 11.6093 17.5734 13.1187 17.8359L13.1234 17.8219C13.1656 17.8359 13.2078 17.85 13.2499 17.8594V22.5H8.74995C8.33745 22.5 7.99995 22.8375 7.99995 23.25C7.99995 23.6625 8.33745 24 8.74995 24H13.9999H19.2499C19.6624 24 19.9999 23.6625 19.9999 23.25C19.9999 22.8375 19.6624 22.5 19.2499 22.5H14.7499V17.8641C14.7921 17.85 14.8343 17.8406 14.8765 17.8266L14.8812 17.8406C16.3906 17.5734 19.2593 16.6453 21.8796 14.7047C24.514 12.75 26.9421 9.74063 27.4156 5.33438C27.5609 4.0125 26.4687 3 25.2499 3H21.4249C21.439 2.75625 21.4484 2.5125 21.4578 2.25938C21.5046 1.02188 20.4921 0 19.2499 0ZM21.3218 4.5H25.2499C25.6859 4.5 25.9624 4.84219 25.9249 5.17031C25.5078 9.05625 23.3796 11.7234 20.9843 13.4953C20.0656 14.1797 19.1093 14.7234 18.2093 15.15C19.5781 13.2141 20.8671 9.96094 21.3218 4.5ZM9.79057 15.15C8.89057 14.7234 7.93432 14.1797 7.01557 13.4953C4.62026 11.7234 2.49213 9.05625 2.07495 5.17031C2.03745 4.84219 2.31401 4.5 2.74995 4.5H6.67807C7.13745 9.96094 8.42182 13.2141 9.79057 15.15Z" fill="black"/>
</svg>
