<svg width="27" height="24" viewBox="0 0 27 24" fill="none" xmlns="http://www.w3.org/2000/svg">
<path d="M13.9784 0.679541C13.7076 0.441455 13.2968 0.441455 13.0215 0.679541L0.7437 11.4608C0.445783 11.7213 0.414186 12.1795 0.680505 12.476C0.946825 12.7725 1.40273 12.804 1.70064 12.5389L3.38884 11.0565V19.9061C3.38884 21.8917 5.00481 23.4999 6.99995 23.4999H20C21.9951 23.4999 23.6111 21.8917 23.6111 19.9061V11.0565L25.2993 12.5389C25.5972 12.7995 26.0531 12.7725 26.3194 12.476C26.5857 12.1795 26.5541 11.7258 26.2562 11.4608L13.9784 0.679541ZM4.83328 19.9061V9.7852L13.5 2.17544L22.1666 9.7852V19.9061C22.1666 21.0965 21.1961 22.0624 20 22.0624H17.1111V14.8749C17.1111 14.0797 16.4656 13.4374 15.6666 13.4374H11.3333C10.5343 13.4374 9.88884 14.0797 9.88884 14.8749V22.0624H6.99995C5.80377 22.0624 4.83328 21.0965 4.83328 19.9061ZM11.3333 22.0624V14.8749H15.6666V22.0624H11.3333Z" fill="black"/>
</svg>
