<svg width="22" height="24" viewBox="0 0 22 24" fill="none" xmlns="http://www.w3.org/2000/svg">
<path d="M15.7143 6C15.7143 5.40905 15.5923 4.82389 15.3554 4.27792C15.1185 3.73196 14.7713 3.23588 14.3335 2.81802C13.8957 2.40016 13.376 2.06869 12.8041 1.84254C12.2321 1.6164 11.6191 1.5 11 1.5C10.3809 1.5 9.76788 1.6164 9.19592 1.84254C8.62396 2.06869 8.10426 2.40016 7.6665 2.81802C7.22873 3.23588 6.88148 3.73196 6.64457 4.27792C6.40765 4.82389 6.28571 5.40905 6.28571 6C6.28571 6.59095 6.40765 7.17611 6.64457 7.72208C6.88148 8.26804 7.22873 8.76412 7.6665 9.18198C8.10426 9.59984 8.62396 9.93131 9.19592 10.1575C9.76788 10.3836 10.3809 10.5 11 10.5C11.6191 10.5 12.2321 10.3836 12.8041 10.1575C13.376 9.93131 13.8957 9.59984 14.3335 9.18198C14.7713 8.76412 15.1185 8.26804 15.3554 7.72208C15.5923 7.17611 15.7143 6.59095 15.7143 6ZM4.71429 6C4.71429 4.4087 5.37653 2.88258 6.55533 1.75736C7.73413 0.632141 9.33292 0 11 0C12.6671 0 14.2659 0.632141 15.4447 1.75736C16.6235 2.88258 17.2857 4.4087 17.2857 6C17.2857 7.5913 16.6235 9.11742 15.4447 10.2426C14.2659 11.3679 12.6671 12 11 12C9.33292 12 7.73413 11.3679 6.55533 10.2426C5.37653 9.11742 4.71429 7.5913 4.71429 6ZM1.57143 22.5H20.4286C20.3696 18.7641 17.1777 15.75 13.2442 15.75H8.7558C4.82723 15.75 1.63527 18.7641 1.57143 22.5ZM0 22.6078C0 17.9906 3.91875 14.25 8.7558 14.25H13.2442C18.0813 14.25 22 17.9906 22 22.6078C22 23.3766 21.3469 24 20.5415 24H1.45848C0.653125 24 0 23.3766 0 22.6078Z" fill="black"/>
</svg>
