<svg width="15" height="13" viewBox="0 0 15 13" fill="none" xmlns="http://www.w3.org/2000/svg">
<path d="M4.41358 0H10.0309C10.6954 0 11.2371 0.553516 11.212 1.22383C11.207 1.3584 11.202 1.49297 11.1944 1.625H13.8426C14.1761 1.625 14.4444 1.89668 14.4444 2.23438C14.4444 4.58555 13.6044 6.2207 12.4759 7.33027C11.365 8.42461 10.0108 8.97559 9.01022 9.25488C8.42342 9.41992 8.02218 9.91504 8.02218 10.4127C8.02218 10.9434 8.4485 11.375 8.97261 11.375H9.62963C10.0735 11.375 10.4321 11.7381 10.4321 12.1875C10.4321 12.6369 10.0735 13 9.62963 13H4.81481C4.37095 13 4.01235 12.6369 4.01235 12.1875C4.01235 11.7381 4.37095 11.375 4.81481 11.375H5.46933C5.99344 11.375 6.41975 10.9434 6.41975 10.4127C6.41975 9.91504 6.02103 9.41738 5.43171 9.25488C4.43113 8.97559 3.07697 8.42461 1.96856 7.33027C0.840085 6.2207 0 4.58555 0 2.23438C0 1.89668 0.268326 1.625 0.601852 1.625H3.25C3.24248 1.49297 3.23746 1.36094 3.23245 1.22383C3.20737 0.553516 3.74904 0 4.41358 0ZM3.34028 2.84375H1.22627C1.35417 4.52715 2.00617 5.66719 2.80613 6.45684C3.36786 7.01035 4.01736 7.40391 4.64178 7.6832C4.07253 6.65996 3.56848 5.13145 3.34028 2.84375ZM9.80015 7.6832C10.4246 7.40391 11.0741 7.01035 11.6358 6.45684C12.4383 5.66719 13.0903 4.52715 13.2157 2.84375H11.1017C10.8735 5.13145 10.3694 6.65996 9.80015 7.6832ZM7.40278 2.19629C7.33005 2.04648 7.1169 2.04648 7.04417 2.19629L6.56269 3.18398C6.5326 3.24492 6.47743 3.28555 6.41223 3.2957L5.33391 3.45312C5.1684 3.47852 5.1032 3.68164 5.22357 3.79844L6.00096 4.56523C6.04861 4.61094 6.06867 4.67949 6.05864 4.74551L5.87558 5.82969C5.84799 5.99473 6.01852 6.12168 6.16647 6.04297L7.12944 5.53516C7.18711 5.50469 7.25733 5.50469 7.31501 5.53516L8.27797 6.04805C8.42593 6.12676 8.59645 5.9998 8.56887 5.83477L8.3858 4.74805C8.37577 4.68203 8.39583 4.61602 8.44348 4.56777L9.22087 3.80098C9.33873 3.68418 9.27353 3.47852 9.11053 3.45566L8.03472 3.29824C7.96952 3.28809 7.91184 3.24746 7.88426 3.18652L7.40278 2.19629Z" fill="black"/>
</svg>
