<svg width="9" height="9" viewBox="0 0 9 9" fill="none" xmlns="http://www.w3.org/2000/svg">
<path d="M6.25 0.399902H2.75C2.33594 0.399902 1.99844 0.748269 2.01406 1.17014C2.01719 1.25484 2.02031 1.33953 2.025 1.42263H0.375C0.167187 1.42263 0 1.59362 0 1.80615C0 3.28591 0.523438 4.31503 1.22656 5.01336C1.91875 5.7021 2.7625 6.04887 3.38438 6.22465C3.75 6.32852 4 6.64014 4 6.95335C4 7.28733 3.73438 7.55899 3.40781 7.55899H3C2.72344 7.55899 2.5 7.78751 2.5 8.07036C2.5 8.3532 2.72344 8.58172 3 8.58172H6C6.27656 8.58172 6.5 8.3532 6.5 8.07036C6.5 7.78751 6.27656 7.55899 6 7.55899H5.59219C5.26562 7.55899 5 7.28733 5 6.95335C5 6.64014 5.24844 6.32693 5.61562 6.22465C6.23906 6.04887 7.08281 5.7021 7.775 5.01336C8.47656 4.31503 9 3.28591 9 1.80615C9 1.59362 8.83281 1.42263 8.625 1.42263H6.975C6.97969 1.33953 6.98281 1.25644 6.98594 1.17014C7.00156 0.748269 6.66406 0.399902 6.25 0.399902ZM0.764062 2.18968H2.08281C2.225 3.62948 2.53906 4.59149 2.89375 5.23548C2.50469 5.0597 2.1 4.81201 1.75 4.46364C1.25 3.96666 0.84375 3.24916 0.765625 2.18968H0.764062ZM7.25156 4.46364C6.90156 4.81201 6.49687 5.0597 6.10781 5.23548C6.4625 4.59149 6.77656 3.62948 6.91875 2.18968H8.2375C8.15781 3.24916 7.75156 3.96666 7.25313 4.46364H7.25156Z" fill="black"/>
</svg>
