<svg width="14" height="13" viewBox="0 0 14 13" fill="none" xmlns="http://www.w3.org/2000/svg">
<path d="M2.052 4.0625V10.5625C2.052 10.7859 2.23481 10.9688 2.45825 10.9688H12.2083C12.4317 10.9688 12.6145 10.7859 12.6145 10.5625V4.0625H4.08325V5.6875C4.08325 5.91094 4.26606 6.09375 4.4895 6.09375H5.302C5.52544 6.09375 5.70825 6.27656 5.70825 6.5C5.70825 6.72344 5.52544 6.90625 5.302 6.90625H4.4895C4.34731 6.90625 4.21021 6.88086 4.08325 6.8377V8.125C4.08325 8.34844 4.26606 8.53125 4.4895 8.53125H6.927C7.15044 8.53125 7.33325 8.71406 7.33325 8.9375C7.33325 9.16094 7.15044 9.34375 6.927 9.34375H4.4895C3.81665 9.34375 3.27075 8.79785 3.27075 8.125V5.6875V4.0625H2.052ZM0.833252 2.4375C0.833252 1.54121 1.56196 0.8125 2.45825 0.8125H12.2083C13.1045 0.8125 13.8333 1.54121 13.8333 2.4375V10.5625C13.8333 11.4588 13.1045 12.1875 12.2083 12.1875H2.45825C1.56196 12.1875 0.833252 11.4588 0.833252 10.5625V2.4375ZM6.52075 6.09375C6.52075 5.87031 6.70356 5.6875 6.927 5.6875H10.9895C11.2129 5.6875 11.3958 5.87031 11.3958 6.09375V6.90625C11.3958 7.12969 11.2129 7.3125 10.9895 7.3125H6.927C6.70356 7.3125 6.52075 7.12969 6.52075 6.90625V6.09375ZM8.552 8.125H10.9895C11.2129 8.125 11.3958 8.30781 11.3958 8.53125V9.34375C11.3958 9.56719 11.2129 9.75 10.9895 9.75H8.552C8.32856 9.75 8.14575 9.56719 8.14575 9.34375V8.53125C8.14575 8.30781 8.32856 8.125 8.552 8.125Z" fill="black"/>
</svg>
