<svg width="16" height="16" viewBox="0 0 16 16" fill="none" xmlns="http://www.w3.org/2000/svg">
<g clip-path="url(#clip0_70_2823)">
<path d="M0.96875 2.60938C0.96875 2.21973 1.28223 1.90625 1.67188 1.90625H3.07812C3.46777 1.90625 3.78125 2.21973 3.78125 2.60938V4.01562C3.78125 4.40527 3.46777 4.71875 3.07812 4.71875H1.67188C1.28223 4.71875 0.96875 4.40527 0.96875 4.01562V2.60938ZM0.96875 7.29688C0.96875 6.90723 1.28223 6.59375 1.67188 6.59375H3.07812C3.46777 6.59375 3.78125 6.90723 3.78125 7.29688V8.70312C3.78125 9.09277 3.46777 9.40625 3.07812 9.40625H1.67188C1.28223 9.40625 0.96875 9.09277 0.96875 8.70312V7.29688ZM1.67188 11.2812H3.07812C3.46777 11.2812 3.78125 11.5947 3.78125 11.9844V13.3906C3.78125 13.7803 3.46777 14.0938 3.07812 14.0938H1.67188C1.28223 14.0938 0.96875 13.7803 0.96875 13.3906V11.9844C0.96875 11.5947 1.28223 11.2812 1.67188 11.2812Z" fill="black"/>
<path d="M5.1875 3.3125C5.1875 2.79395 5.60645 2.375 6.125 2.375H14.5625C15.0811 2.375 15.5 2.79395 15.5 3.3125C15.5 3.83105 15.0811 4.25 14.5625 4.25H6.125C5.60645 4.25 5.1875 3.83105 5.1875 3.3125ZM5.1875 8C5.1875 7.48145 5.60645 7.0625 6.125 7.0625H14.5625C15.0811 7.0625 15.5 7.48145 15.5 8C15.5 8.51855 15.0811 8.9375 14.5625 8.9375H6.125C5.60645 8.9375 5.1875 8.51855 5.1875 8ZM6.125 11.75H14.5625C15.0811 11.75 15.5 12.1689 15.5 12.6875C15.5 13.2061 15.0811 13.625 14.5625 13.625H6.125C5.60645 13.625 5.1875 13.2061 5.1875 12.6875C5.1875 12.1689 5.60645 11.75 6.125 11.75Z" fill="black"/>
</g>
<defs>
<clipPath id="clip0_70_2823">
<rect width="15" height="15" fill="white" transform="translate(0.5 0.5)"/>
</clipPath>
</defs>
</svg>
