<svg width="25" height="23" viewBox="0 0 25 23" fill="none" xmlns="http://www.w3.org/2000/svg">
<path d="M25 2.74326C25 1.75876 24.202 0.963379 23.2143 0.963379H1.78572C0.797991 0.963379 0 1.75876 0 2.74326C0 3.72775 0.797991 4.52313 1.78572 4.52313H23.2143C24.202 4.52313 25 3.72775 25 2.74326ZM25 11.6426C25 10.6581 24.202 9.86276 23.2143 9.86276H8.92857C7.94085 9.86276 7.14286 10.6581 7.14286 11.6426C7.14286 12.6271 7.94085 13.4225 8.92857 13.4225H23.2143C24.202 13.4225 25 12.6271 25 11.6426ZM14.2857 20.542C14.2857 21.5265 15.0837 22.3219 16.0714 22.3219H23.2143C24.202 22.3219 25 21.5265 25 20.542C25 19.5575 24.202 18.7621 23.2143 18.7621H16.0714C15.0837 18.7621 14.2857 19.5575 14.2857 20.542Z" fill="black"/>
</svg>
