<svg width="58" height="58" viewBox="0 0 58 58" fill="none" xmlns="http://www.w3.org/2000/svg">
<path d="M30.6499 37.2547L51.3499 23.3647C51.8011 23.0676 52.3242 22.8978 52.8639 22.8733C53.4036 22.8488 53.9399 22.9705 54.4161 23.2255C54.8924 23.4806 55.291 23.8595 55.5697 24.3222C55.8485 24.785 55.9971 25.3145 55.9999 25.8547V53.3647C55.9999 54.1604 55.6838 54.9235 55.1212 55.4861C54.5586 56.0487 53.7956 56.3647 52.9999 56.3647H4.99991C4.20426 56.3647 3.4412 56.0487 2.87859 55.4861C2.31598 54.9235 1.99991 54.1604 1.99991 53.3647V25.9747C1.9805 25.4244 2.11297 24.8792 2.3828 24.3991C2.65264 23.9191 3.04942 23.5225 3.52967 23.2529C4.00992 22.9834 4.5551 22.8512 5.10548 22.8709C5.65586 22.8907 6.19019 23.0615 6.64991 23.3647L27.3499 37.1347C27.8279 37.4754 28.3953 37.6683 28.9819 37.6896C29.5685 37.711 30.1484 37.5598 30.6499 37.2547ZM30.6499 37.2547C30.1601 37.5773 29.5864 37.7493 28.9999 37.7493C28.4134 37.7493 27.8397 37.5773 27.3499 37.2547L10.9999 26.3647V2.36475H46.9999V26.3647L30.6499 37.2547Z" stroke="black" stroke-width="3" stroke-linecap="round" stroke-linejoin="round"/>
</svg>
