<svg width="11" height="13" viewBox="0 0 11 13" fill="none" xmlns="http://www.w3.org/2000/svg">
<path d="M10.606 3.82402C10.9083 3.50664 10.9083 2.99121 10.606 2.67383L8.2846 0.236328C7.98233 -0.0810547 7.49144 -0.0810547 7.18917 0.236328C6.8869 0.553711 6.8869 1.06914 7.18917 1.38652L8.19029 2.4377H0.773809C0.345796 2.4377 0 2.80078 0 3.2502C0 3.69961 0.345796 4.0627 0.773809 4.0627H8.19029L7.18917 5.11387C6.8869 5.43125 6.8869 5.94668 7.18917 6.26406C7.49144 6.58144 7.98233 6.58144 8.2846 6.26406L10.606 3.82656V3.82402ZM2.54632 12.7615C2.84859 13.0789 3.33947 13.0789 3.64174 12.7615C3.94401 12.4441 3.94401 11.9287 3.64174 11.6113L2.64304 10.5627H10.0595C10.4875 10.5627 10.8333 10.1996 10.8333 9.75019C10.8333 9.30078 10.4875 8.93769 10.0595 8.93769H2.64304L3.64416 7.88652C3.94643 7.56914 3.94643 7.05371 3.64416 6.73633C3.34189 6.41894 2.851 6.41894 2.54874 6.73633L0.227307 9.17383C-0.0749628 9.49121 -0.0749628 10.0066 0.227307 10.324L2.54874 12.7615H2.54632Z" fill="black"/>
</svg>
