<svg width="16" height="13" viewBox="0 0 16 13" fill="none" xmlns="http://www.w3.org/2000/svg">
<path d="M12.8 0.8125C12.6161 0.8125 12.4341 0.849278 12.2642 0.920734C12.0944 0.99219 11.9401 1.09692 11.8101 1.22896C11.68 1.36099 11.5769 1.51774 11.5066 1.69025C11.4362 1.86276 11.4 2.04765 11.4 2.23438C11.4 2.4211 11.4362 2.60599 11.5066 2.7785C11.5769 2.95101 11.68 3.10776 11.8101 3.23979C11.9401 3.37183 12.0944 3.47656 12.2642 3.54802C12.4341 3.61947 12.6161 3.65625 12.8 3.65625C12.9839 3.65625 13.1659 3.61947 13.3358 3.54802C13.5056 3.47656 13.6599 3.37183 13.7899 3.23979C13.92 3.10776 14.0231 2.95101 14.0934 2.7785C14.1638 2.60599 14.2 2.4211 14.2 2.23438C14.2 2.04765 14.1638 1.86276 14.0934 1.69025C14.0231 1.51774 13.92 1.36099 13.7899 1.22896C13.6599 1.09692 13.5056 0.99219 13.3358 0.920734C13.1659 0.849278 12.9839 0.8125 12.8 0.8125ZM14.6675 6.98496L14.4 7.42422V6.2791L14.6675 6.98496ZM16 7.10938L15 4.46875H10.6925L10.695 4.47129L12.295 7.31504L12.55 7.76699L12.25 8.19102L11.2 9.68652V9.75V11.375H14.4V9.75L16 7.10938ZM4.8 9.68652L3.75 8.19102L3.45 7.76699L3.705 7.31504L5.305 4.47129L5.3075 4.46875H1L0 7.10938L1.6 9.75V11.375H4.8V9.75V9.68652ZM3.2 0.8125C3.01615 0.8125 2.8341 0.849278 2.66424 0.920734C2.49439 0.99219 2.34005 1.09692 2.21005 1.22896C2.08005 1.36099 1.97692 1.51774 1.90657 1.69025C1.83621 1.86276 1.8 2.04765 1.8 2.23438C1.8 2.4211 1.83621 2.60599 1.90657 2.7785C1.97692 2.95101 2.08005 3.10776 2.21005 3.23979C2.34005 3.37183 2.49439 3.47656 2.66424 3.54802C2.8341 3.61947 3.01615 3.65625 3.2 3.65625C3.38385 3.65625 3.5659 3.61947 3.73576 3.54802C3.90561 3.47656 4.05995 3.37183 4.18995 3.23979C4.31995 3.10776 4.42307 2.95101 4.49343 2.7785C4.56379 2.60599 4.6 2.4211 4.6 2.23438C4.6 2.04765 4.56379 1.86276 4.49343 1.69025C4.42307 1.51774 4.31995 1.36099 4.18995 1.22896C4.05995 1.09692 3.90561 0.99219 3.73576 0.920734C3.5659 0.849278 3.38385 0.8125 3.2 0.8125ZM1.3325 6.98496L1.6 6.2791V7.42422L1.3325 6.98496ZM8 0.8125C7.57565 0.8125 7.16869 0.983705 6.86863 1.28845C6.56857 1.5932 6.4 2.00652 6.4 2.4375C6.4 2.86848 6.56857 3.2818 6.86863 3.58655C7.16869 3.8913 7.57565 4.0625 8 4.0625C8.42435 4.0625 8.83131 3.8913 9.13137 3.58655C9.43143 3.2818 9.6 2.86848 9.6 2.4375C9.6 2.00652 9.43143 1.5932 9.13137 1.28845C8.83131 0.983705 8.42435 0.8125 8 0.8125ZM10.1775 7.64512L9.6 8.46523V6.61934L10.1775 7.64512ZM6.4 6.61934V8.46523L5.8225 7.64512L6.4 6.61934ZM4.4 7.71875L6.4 10.5625V12.1875H9.6V10.5625L11.6 7.71875L10 4.875H6L4.4 7.71875Z" fill="black"/>
</svg>
